<svg width="20" height="20" viewBox="0 0 20 20" fill="none" xmlns="http://www.w3.org/2000/svg">
<path d="M2 11H8C8.55 11 9 10.55 9 10V2C9 1.45 8.55 1 8 1H2C1.45 1 1 1.45 1 2V10C1 10.55 1.45 11 2 11ZM2 19H8C8.55 19 9 18.55 9 18V14C9 13.45 8.55 13 8 13H2C1.45 13 1 13.45 1 14V18C1 18.55 1.45 19 2 19ZM12 19H18C18.55 19 19 18.55 19 18V10C19 9.45 18.55 9 18 9H12C11.45 9 11 9.45 11 10V18C11 18.55 11.45 19 12 19ZM11 2V6C11 6.55 11.45 7 12 7H18C18.55 7 19 6.55 19 6V2C19 1.45 18.55 1 18 1H12C11.45 1 11 1.45 11 2Z" fill="#686868"/>
</svg>
